inDegrees=no
num_controls=7
num_derivatives=13
num_iterations=143
num_multipliers=7
num_parameters=0
num_slacks=7
num_states=26
objective=5.375507
objective_accelerations=0.359100
objective_balance=0.041228
objective_effort=0.372684
objective_height=4.553600
objective_ligament=0.048895
solver_duration=1523.198544
status=Solve_Succeeded
success=true
DataType=double
version=3
OpenSimVersion=4.4-2022-07-23-0e9fedc
endheader
time	/jointset/ground_pelvis/pelvis_tilt/value	/jointset/ground_pelvis/pelvis_tx/value	/jointset/ground_pelvis/pelvis_ty/value	/jointset/hip_l/hip_flexion_l/value	/jointset/hip_l/hip_adduction_l/value	/jointset/hip_l/hip_rotation_l/value	/jointset/back/lumbar_extension/value	/jointset/patellofemoral_l/patellar_flexion_l/value	/jointset/knee_l/knee_flexion_l/value	/jointset/knee_l/knee_adduction_l/value	/jointset/knee_l/knee_rotation_l/value	/jointset/ankle_l/ankle_angle_l/value	/jointset/subtalar_l/subtalar_angle_l/value	/jointset/ground_pelvis/pelvis_tilt/speed	/jointset/ground_pelvis/pelvis_tx/speed	/jointset/ground_pelvis/pelvis_ty/speed	/jointset/hip_l/hip_flexion_l/speed	/jointset/hip_l/hip_adduction_l/speed	/jointset/hip_l/hip_rotation_l/speed	/jointset/back/lumbar_extension/speed	/jointset/patellofemoral_l/patellar_flexion_l/speed	/jointset/knee_l/knee_flexion_l/speed	/jointset/knee_l/knee_adduction_l/speed	/jointset/knee_l/knee_rotation_l/speed	/jointset/ankle_l/ankle_angle_l/speed	/jointset/subtalar_l/subtalar_angle_l/speed	/forceset/tau_hip_flexion_l	/forceset/tau_hip_adduction_l	/forceset/tau_hip_rotation_l	/forceset/tau_knee_flexion_l	/forceset/tau_ankle_angle_l	/forceset/tau_subtalar_angle_l	/forceset/tau_lumbar_extension	lambda_cid13_p0	lambda_cid13_p1	lambda_cid13_p2	lambda_cid13_p3	lambda_cid13_p4	lambda_cid13_p5	lambda_cid14_p0	/jointset/ground_pelvis/pelvis_tilt/accel	/jointset/ground_pelvis/pelvis_tx/accel	/jointset/ground_pelvis/pelvis_ty/accel	/jointset/hip_l/hip_flexion_l/accel	/jointset/hip_l/hip_adduction_l/accel	/jointset/hip_l/hip_rotation_l/accel	/jointset/back/lumbar_extension/accel	/jointset/patellofemoral_l/patellar_flexion_l/accel	/jointset/knee_l/knee_flexion_l/accel	/jointset/knee_l/knee_adduction_l/accel	/jointset/knee_l/knee_rotation_l/accel	/jointset/ankle_l/ankle_angle_l/accel	/jointset/subtalar_l/subtalar_angle_l/accel	gamma_cid13_p0	gamma_cid13_p1	gamma_cid13_p2	gamma_cid13_p3	gamma_cid13_p4	gamma_cid13_p5	gamma_cid14_p0
0	-0.0368216491988545	0.05667711585770208	0.920341616906923	0.3085811930696054	-0.2956400981344423	-0.3016008784263886	-0.3879500408040475	0.2499276582270508	0.249927658227084	-0.1745327461620572	-0.1745266557470804	-0.0008036543073733089	0.0004379133117409812	0	0	0	0	0	0	0	0	0	0	0	0	0	0.05966790736021226	-0.04171273738672603	-0.02180286425466944	-0.2584336631650848	0.2361804489576333	-0.02398914287979056	0.0223815732078461	31.53345751597772	2.55185346404315	1.817812698696572	-11.73718612498869	-639.264191126109	-67.99033219875135	-23.19675164223326	-0.0007533789743191144	-1.245348925746833	-0.6396846242177421	6.141563674217352	-0.7882202161577446	2.796482945875012	-6.411980761992075	7.747759426588226	7.747759426587657	0.8588389239119785	-0.03222207663124183	2.021422443096703	-0.1519094914996511	-1.083315542456463e-08	9.914579095057489e-08	6.560934950004857e-08	-7.904361855611892e-10	5.715859544475046e-08	-2.112551831330506e-08	-1.510617621613792e-09
0.01	-0.03681923646716018	0.0566160127353932	0.9203104235376294	0.3088794289110339	-0.2956794385411154	-0.3014607149978549	-0.3882683831834366	0.2503072010463955	0.2503072010462717	-0.1744924525115814	-0.1745255073757484	-0.0007044632209841059	0.0004297361684810289	0.0005007254647978158	-0.01211805667036284	-0.006208622344266417	0.05929554850148767	-0.007819726220079648	0.02787806030110052	-0.06320131276517318	0.07556243434411866	0.07556243434411332	0.008038546873251716	0.0002113567190382721	0.01981295352127546	-0.00159272539963095	0.05422451220913541	-0.05839339673799022	-0.02090423611007407	-0.2535175211519015	0.2246568189944731	-0.004202594761024831	0.02744405508979253	28.47461617578123	-5.379648162948738	2.938142551539444	-11.5995224565102	-641.7525970378766	-84.30901007575977	-23.20112585525005	0.07820600175951517	-1.179649022476298	-0.6069318807320315	5.77080207788456	-0.7716220360741562	2.760269233626823	-6.204132069881044	7.408566314209494	7.408566314209037	0.7733594458329537	0.04507455082891097	1.957443806698876	-0.156571859094672	-3.011723256867799e-08	1.02444011101249e-07	1.094891730894551e-07	1.806946490489159e-08	-1.54711479337776e-08	-5.023426464280793e-08	-6.309798913733625e-09
0.02	-0.03681127238223665	0.05643680604942606	0.9202180477766513	0.3097600705654467	-0.2957955308522305	-0.301046410634041	-0.3892047237977041	0.2514319843841611	0.2514319843841614	-0.174372374016669	-0.1745227934366806	-0.0004079001993696117	0.0004069082122447636	0.001110270631384087	-0.023620712731655	-0.01223647833691435	0.1164811625937719	-0.01535038088586494	0.05482818705813669	-0.1235996469746581	0.1490481037236741	0.1490481037236657	0.0159569688185508	0.0003131136243813128	0.03947438704480642	-0.002930162595254806	0.04878111705788885	-0.07507405608906094	-0.02000560796393012	-0.2486013791389617	0.2131331890313539	0.0155839533579331	0.03250653697151454	25.47464310673373	-13.32234594972326	4.061273079309301	-11.59897250602348	-643.3886927425539	-100.5558354164145	-23.21401800693159	0.02101056138139298	-1.122268803931062	-0.6035313538940799	5.719576792376444	-0.730405905299517	2.610896237061639	-5.851385050855534	7.332406433675404	7.332406433675302	0.834813938320136	-0.05414203937094994	1.99111844354944	-0.1008518506983294	-4.940130971279135e-08	1.05742231251923e-07	1.533689966788616e-07	3.692936599534437e-08	-8.810089131230566e-08	-7.93430109723108e-08	-1.110898020585346e-08
0.03	-0.03679697111240812	0.05614563884169015	0.9200661284479299	0.3112025434185001	-0.2959854474026992	-0.300367255852271	-0.3907315869069816	0.2532814392513656	0.2532814392513332	-0.1741737892602284	-0.1745196532982256	8.450802008492337e-05	0.0003720064219161622	0.001754332036795046	-0.03451075209415446	-0.01813120403123706	0.1716858211798254	-0.02258847989614595	0.0808724936513197	-0.1813788991524991	0.2205022832699526	0.2205022832699529	0.02371149682476733	0.0003175520108778501	0.0589765792445574	-0.004014626883706348	0.0445931025893909	-0.06627242124898469	-0.0196548640415169	-0.2461093483383316	0.2132421441353226	0.009484851082463623	0.03660290825355961	25.21607855234519	-10.7091082384365	3.737030271958804	-12.02647417189436	-644.9596077841086	-94.48422846967999	-23.23495585732712	0.08675061931994335	-1.05706752798591	-0.5800335844353959	5.371764492635674	-0.7138819990790725	2.581638577685992	-5.682083945133541	7.000837988637723	7.000837988638951	0.738533535839643	0.02815526711011355	1.92516722565515	-0.1069425400508431	-6.810943606859049e-08	7.415502659861161e-08	2.051500634223941e-07	5.009483367807212e-08	-1.539403591277258e-07	-1.221203780921598e-07	-2.035700349104662e-08
0.04	-0.03677609989062553	0.0557486320352178	0.9198557437808176	0.3131872336776814	-0.2962464189633228	-0.2994315698631541	-0.3928244202668053	0.2558352187687458	0.2558352187687509	-0.1738991069629471	-0.1745163850779131	0.0007710176850340034	0.0003273202242767084	0.002424261009811323	-0.04478863247894033	-0.02392954601512839	0.2249246438024722	-0.02956138291396359	0.1061344285340767	-0.2367936970860015	0.2899130337575859	0.2899130337575958	0.03117647699369782	0.0003387299753685932	0.07829467614301365	-0.004887044057439197	0.04040508812138834	-0.05747078640868158	-0.01930412011909301	-0.2436173175373322	0.2133510992394891	0.00338574880729469	0.04069927953577253	25.01341013533092	-8.102606945117858	3.410377228956203	-12.58969474553972	-645.73640226706	-88.33682114471837	-23.26332274257124	0.02618407490065195	-0.999837008386864	-0.5842546118078147	5.326409599694991	-0.6773667068071357	2.454421894975991	-5.378494201988871	6.923720621946178	6.923720621946273	0.7769043708623209	-0.05079412377254783	1.954299383292053	-0.05844242775435242	-8.680568715040378e-08	4.184853483593966e-08	2.570940423959086e-07	6.314289036270247e-08	-2.196398212614324e-07	-1.651795724447994e-07	-2.969675547712788e-08
0.05	-0.03674836894972423	0.05525156750058178	0.9195877226981061	0.3156950179394625	-0.2965756814808032	-0.2982476926720983	-0.3954595314365499	0.2590730647473454	0.2590730647473717	-0.1735510672879786	-0.1745133310245407	0.001649371553571146	0.0002749404977352152	0.003144565997212937	-0.05455599680391196	-0.02966860993295277	0.2763336555387098	-0.03623155865028001	0.1305089281154167	-0.2898464067817124	0.3573132545109758	0.3573132545109806	0.03839739460879142	0.0002799146010272656	0.09730101806628705	-0.005553686824130261	0.03412982893919425	-0.05642926196094689	-0.01835856721319117	-0.2377904932780261	0.2048861687763255	0.006898850079367575	0.04605639485491742	22.39527294290194	-9.211538004398014	3.634697364216702	-11.59004722320817	-646.6804563276984	-89.90632804482266	-23.29835082793349	0.09834504121847779	-0.9549317600055147	-0.5678676515015783	5.00335449147997	-0.6529495171957151	2.409114487167797	-5.211339844189989	6.596742698283137	6.596742698282323	0.6896094987428607	0.01779300045387045	1.862535651497994	-0.06552865040135114	-9.803204321871354e-08	1.99909145237802e-08	2.875461339864377e-07	7.210183714781989e-08	-2.659885674477647e-07	-1.904834183626253e-07	-3.499900488222318e-08
0.06	-0.03671275669277329	0.05465888019960938	0.9192624839022689	0.3187079338248258	-0.296969867057685	-0.2968240403857462	-0.3986137058014085	0.2629746269127516	0.2629746269127468	-0.1731318336284676	-0.1745106214759035	0.002715535652274492	0.0002169436536722402	0.004000524206669119	-0.06391318574621685	-0.03537308864023566	0.3259509685106236	-0.04254599479268082	0.1540894475949488	-0.3406063361107771	0.422656271114278	0.4226562711142787	0.0454152739002836	0.0002698290154289838	0.1158567221756937	-0.006010467561813163	0.02785456975701639	-0.05538773751315803	-0.01741301430752802	-0.2319636690186627	0.1964212383131851	0.010411951351508	0.05141351017404346	19.8276207978336	-10.32955159974857	3.860743403828511	-10.72204169907442	-646.9043396021942	-91.41490070582898	-23.33916305031838	0.05331471930985365	-0.9178019318521301	-0.5773375696995158	4.968069846830137	-0.6062187880242275	2.295625874614148	-4.919938128660651	6.512279791928443	6.51227979192874	0.7362967061415875	-0.04104816602416923	1.864171820520178	-0.01647002195242089	-1.089438773917179e-07	-1.426753306252399e-09	3.170933040029463e-07	8.088861088453675e-08	-3.115225466468391e-07	-2.150396706621433e-07	-4.013125417864537e-08
